<svg width="52" height="51" viewBox="0 0 52 51" fill="none" xmlns="http://www.w3.org/2000/svg">
<path d="M30.72 24.76C31.984 25.496 32.616 26.8 32.616 28.672V29.488C32.616 30.96 32.224 32.08 31.44 32.848C30.672 33.616 29.552 34 28.08 34H21.504C21.184 34 20.936 33.912 20.76 33.736C20.584 33.56 20.496 33.312 20.496 32.992V18.736C20.496 18.416 20.584 18.168 20.76 17.992C20.936 17.816 21.184 17.728 21.504 17.728H27.768C29.032 17.728 30.008 18.064 30.696 18.736C31.384 19.408 31.728 20.368 31.728 21.616V22.264C31.728 22.776 31.64 23.248 31.464 23.68C31.288 24.112 31.04 24.472 30.72 24.76ZM22.512 24.184H28.08H28.512C28.928 24.136 29.232 23.944 29.424 23.608C29.616 23.256 29.712 22.808 29.712 22.264V21.616C29.712 20.928 29.568 20.448 29.28 20.176C28.992 19.888 28.488 19.744 27.768 19.744H22.512V24.184ZM30.6 28.672C30.6 27.776 30.408 27.144 30.024 26.776C29.64 26.392 28.992 26.2 28.08 26.2H22.512V31.984H28.08C28.976 31.984 29.616 31.792 30 31.408C30.4 31.024 30.6 30.384 30.6 29.488V28.672Z" fill="white"/>
<path d="M11.9313 32.6965C11.3904 32.092 11.0717 31.3212 11.0278 30.5112V20.4105C11.0716 19.6004 11.3903 18.8295 11.9313 18.2251L12.6458 17.5104C12.8854 17.2702 13.0199 16.9448 13.0199 16.6055C13.0199 16.2662 12.8854 15.9408 12.6458 15.7006L5.06695 8.11803C4.82662 7.8786 4.50126 7.74417 4.16206 7.74417C3.82286 7.74417 3.49749 7.8786 3.25717 8.11803L0.37229 11.004C0.133799 11.2447 0 11.5699 0 11.9089C0 12.2478 0.133799 12.573 0.37229 12.8137L5.78143 18.2249C6.32337 18.8287 6.64251 19.5999 6.68584 20.4103V30.511C6.64263 31.321 6.32345 32.0915 5.78143 32.6949L0.37229 38.1081C0.133799 38.3489 0 38.6741 0 39.0129C0 39.3518 0.133799 39.6771 0.37229 39.9179L3.25717 42.8037C3.49752 43.0431 3.82288 43.1775 4.16206 43.1775C4.50123 43.1775 4.8266 43.0431 5.06695 42.8037L12.6458 35.2206C12.8853 34.9802 13.0199 34.655 13.0199 34.3158C13.0199 33.9764 12.8853 33.6511 12.6458 33.411L11.9313 32.6965Z" fill="#0061E5"/>
<path d="M32.7593 39.0638C32.1552 39.6049 31.385 39.9241 30.5752 39.9688H20.4811C19.6708 39.9241 18.8999 39.6051 18.2951 39.0638L17.5823 38.3472C17.3411 38.1085 17.0156 37.9748 16.6765 37.9748C16.3374 37.9748 16.012 38.1085 15.7708 38.3472L8.19295 45.9298C7.9537 46.1706 7.8194 46.4964 7.8194 46.8358C7.8194 47.1752 7.9537 47.501 8.19295 47.7415L11.0778 50.6276C11.3187 50.8662 11.644 51 11.9829 51C12.3219 51 12.6472 50.8662 12.8881 50.6276L18.296 45.2137C18.9007 44.6729 19.6714 44.3539 20.4813 44.3091H30.5783C31.3881 44.3536 32.1584 44.6726 32.7624 45.2137L38.1728 50.6276C38.4136 50.8662 38.7386 51 39.0775 51C39.4163 51 39.7415 50.8662 39.9821 50.6276L42.8669 47.7415C43.1063 47.501 43.2405 47.1752 43.2405 46.8358C43.2405 46.4964 43.1063 46.1706 42.8669 45.9298L35.2836 38.3467C35.043 38.1081 34.718 37.9743 34.3793 37.9743C34.0406 37.9743 33.7153 38.1081 33.4748 38.3467L32.7593 39.0638Z" fill="#0061E5"/>
<path d="M39.3061 18.303C39.8483 18.908 40.1681 19.6801 40.2121 20.4915V30.5884C40.1678 31.3994 39.8481 32.1709 39.3061 32.7752L38.5914 33.4916C38.3525 33.7322 38.2185 34.0574 38.2185 34.3966C38.2185 34.7356 38.3525 35.0608 38.5914 35.3014L46.1723 42.883C46.4127 43.1224 46.7381 43.2566 47.0771 43.2566C47.4163 43.2566 47.7416 43.1224 47.9819 42.883L50.8667 39.9955C51.1061 39.7552 51.2406 39.4297 51.2406 39.0905C51.2406 38.7513 51.1061 38.4258 50.8667 38.1855L45.4588 32.7742C44.9166 32.1699 44.5966 31.3984 44.5524 30.5875L44.5538 20.4906C44.5974 19.6792 44.9166 18.9071 45.4588 18.302L50.8667 12.8909C51.1061 12.651 51.2406 12.3259 51.2406 11.987C51.2406 11.648 51.1061 11.3229 50.8667 11.0831L47.9819 8.19544C47.863 8.07658 47.7221 7.98228 47.5669 7.91795C47.4115 7.85362 47.2453 7.8205 47.0771 7.8205C46.9092 7.8205 46.7427 7.85362 46.5876 7.91795C46.4322 7.98228 46.2912 8.07658 46.1723 8.19544L38.5914 15.7768C38.3525 16.0174 38.2185 16.3427 38.2185 16.6818C38.2185 17.0209 38.3525 17.3462 38.5914 17.5868L39.3061 18.303Z" fill="#0061E5"/>
<path d="M18.4778 11.9359C19.0816 11.3941 19.8524 11.0748 20.6624 11.0309H30.7573C31.5671 11.0756 32.3374 11.3948 32.9417 11.9359L33.6578 12.6521C33.7764 12.7709 33.9174 12.8652 34.0726 12.9295C34.2277 12.9938 34.394 13.0269 34.5619 13.0269C34.7298 13.0269 34.8963 12.9938 35.0512 12.9295C35.2064 12.8652 35.3473 12.7709 35.4662 12.6521L43.0459 5.06902C43.285 4.82828 43.4193 4.50263 43.4193 4.16319C43.4193 3.82377 43.285 3.49812 43.0459 3.25736L40.161 0.374787C39.921 0.134804 39.5955 0 39.256 0C38.9166 0 38.5911 0.134804 38.351 0.374787L32.9419 5.78595C32.3376 6.32705 31.5673 6.64624 30.7576 6.69091H20.6624C19.8524 6.64701 19.0816 6.32773 18.4778 5.78595L13.0686 0.374787C12.8278 0.136265 12.5025 0.00246602 12.1636 0.00246602C11.8247 0.00246602 11.4995 0.136265 11.2586 0.374787L8.37374 3.26073C8.13456 3.50144 8.00031 3.82704 8.00031 4.16644C8.00031 4.50583 8.13456 4.83143 8.37374 5.07214L15.9518 12.6518C16.1919 12.8918 16.5174 13.0266 16.8568 13.0266C17.1962 13.0266 17.5218 12.8918 17.7619 12.6518L18.4778 11.9359Z" fill="#0061E5"/>
</svg>
